<svg viewBox="0 0 120 120" xmlns="http://www.w3.org/2000/svg">
    <defs>
        <linearGradient id="fg1" x1="0%" y1="0%" x2="100%" y2="100%">
            <stop offset="0%" stop-color="#2ecc71"/>
            <stop offset="100%" stop-color="#27ae60"/>
        </linearGradient>
        <linearGradient id="fg2" x1="0%" y1="0%" x2="100%" y2="100%">
            <stop offset="0%" stop-color="#3ddc84"/>
            <stop offset="100%" stop-color="#2ecc71"/>
        </linearGradient>
    </defs>
    <path d="M60 72 Q40 68 12 80 Q18 70 60 62Z" fill="url(#fg1)" opacity="0.5"/>
    <path d="M60 72 Q80 68 108 80 Q102 70 60 62Z" fill="url(#fg1)" opacity="0.5"/>
    <path d="M60 66 Q38 62 10 74 Q16 64 60 56Z" fill="url(#fg1)" opacity="0.7"/>
    <path d="M60 66 Q82 62 110 74 Q104 64 60 56Z" fill="url(#fg1)" opacity="0.7"/>
    <path d="M60 60 Q36 55 8 68 Q14 58 60 50Z" fill="url(#fg2)"/>
    <path d="M60 60 Q84 55 112 68 Q106 58 60 50Z" fill="url(#fg2)"/>
    <line x1="60" y1="18" x2="60" y2="72" stroke="#27ae60" stroke-width="3" stroke-linecap="round"/>
    <path d="M60 22 Q48 18 38 26 Q46 20 60 30Z" fill="url(#fg2)"/>
    <path d="M60 22 Q72 18 82 26 Q74 20 60 30Z" fill="url(#fg2)"/>
    <path d="M60 18 Q44 12 32 22 Q42 14 60 26Z" fill="#2ecc71"/>
    <path d="M60 18 Q76 12 88 22 Q78 14 60 26Z" fill="#2ecc71"/>
    <text x="42" y="48" text-anchor="middle" dominant-baseline="central" font-family="Arial, sans-serif" font-size="18" font-weight="800" fill="rgba(255,255,255,0.9)">H</text>
    <text x="78" y="48" text-anchor="middle" dominant-baseline="central" font-family="Arial, sans-serif" font-size="18" font-weight="800" fill="rgba(255,255,255,0.9)">Y</text>
</svg>
